<svg version="1.1" id="Layer_1" xmlns="http://www.w3.org/2000/svg" xmlns:xlink="http://www.w3.org/1999/xlink" x="0px" y="0px"
	 width="100%" viewBox="0 0 1841 2004" enable-background="new 0 0 1841 2004" xml:space="preserve">

<path fill="#FFAC34" opacity="1.000000" stroke="none" 
	d="
M1116.145752,1700.047241 
	C1117.595337,1718.449951 1119.197266,1736.842407 1120.417969,1755.260376 
	C1120.889038,1762.366699 1120.494751,1769.530396 1120.494751,1777.370483 
	C1126.827881,1777.995972 1132.223999,1778.928223 1137.630249,1778.990601 
	C1156.455933,1779.208008 1175.286011,1779.020386 1194.112549,1779.192383 
	C1206.040283,1779.301392 1217.978882,1779.517212 1229.885620,1780.174927 
	C1238.164673,1780.632202 1246.446411,1781.626099 1254.628784,1782.976074 
	C1258.187012,1783.563354 1261.776733,1785.199097 1264.875122,1787.125977 
	C1280.419800,1796.793457 1289.488647,1810.537842 1291.221191,1829.080200 
	C1293.510498,1853.579834 1280.760254,1876.378418 1257.907715,1886.206299 
	C1251.498535,1888.962524 1244.200684,1890.372925 1237.201904,1890.868896 
	C1226.761841,1891.608765 1216.225342,1890.973999 1205.729858,1890.953491 
	C1195.235474,1890.933105 1184.741089,1890.948975 1173.238770,1890.948975 
	C1174.592651,1892.117920 1175.152954,1892.859863 1175.897339,1893.205078 
	C1186.508179,1898.126587 1193.881592,1907.182373 1201.942017,1914.967407 
	C1214.408569,1927.007812 1216.578003,1943.190674 1213.066040,1959.459106 
	C1207.664917,1984.478882 1191.353149,1999.110596 1166.242798,2004.714478 
	C1160.977905,2005.000000 1155.955811,2005.000000 1150.198608,2004.727539 
	C1145.324097,2003.280396 1140.947632,2002.615845 1137.094727,2000.825073 
	C1128.980713,1997.053955 1121.094360,1992.780396 1113.198608,1988.555664 
	C1095.064087,1978.852783 1076.942139,1969.124756 1058.886719,1959.275635 
	C1043.610962,1950.942749 1028.474731,1942.354126 1013.204163,1934.011841 
	C1000.715515,1927.189697 987.913269,1920.917358 975.632751,1913.745972 
	C964.711487,1907.368530 956.982727,1897.113770 955.321167,1885.091797 
	C953.696533,1873.337036 952.641296,1860.982300 957.436157,1848.869019 
	C960.486572,1841.162964 964.563110,1834.869019 970.568176,1829.607300 
	C974.593140,1826.080688 979.599854,1823.495117 983.036804,1819.512695 
	C990.973450,1810.316650 998.137451,1800.458496 1005.775696,1790.998657 
	C1012.306213,1782.910767 1016.486938,1773.729370 1019.354980,1763.830200 
	C1020.800049,1758.842529 1022.635559,1753.968018 1024.074951,1748.978882 
	C1026.504272,1740.558716 1030.451050,1732.457031 1030.076538,1723.414551 
	C1029.919800,1719.628662 1029.200195,1715.865967 1029.176147,1712.062744 
	C1042.401001,1709.528076 1055.281860,1707.426270 1067.947021,1704.416748 
	C1083.691528,1700.675781 1099.257690,1696.184692 1114.941650,1692.429199 
	C1115.370117,1695.242920 1115.757935,1697.645142 1116.145752,1700.047241 
z"/>
<path fill="#FFAC34" opacity="1.000000" stroke="none" 
	d="
M724.627747,1776.426392 
	C724.623535,1776.083984 724.619324,1775.741455 725.106812,1775.151611 
	C726.426636,1774.007446 727.957520,1773.123413 727.973999,1772.212036 
	C728.138245,1763.154541 728.052246,1754.092407 728.036987,1745.031616 
	C728.097900,1738.001587 728.158813,1730.971558 728.686401,1723.414062 
	C732.957581,1720.129395 732.091431,1716.244507 731.668579,1712.466553 
	C731.666321,1707.430908 731.664062,1702.395386 731.783752,1696.508301 
	C732.031067,1692.877441 733.456604,1693.070312 735.624268,1693.685425 
	C746.602417,1696.801025 757.539246,1700.142700 768.659668,1702.656982 
	C784.119324,1706.152344 799.729370,1708.983154 815.222046,1712.523926 
	C816.082153,1734.390747 822.397766,1754.523071 831.604065,1773.566650 
	C842.146362,1795.374023 856.722473,1814.421753 876.119324,1829.279541 
	C889.262085,1839.346558 893.724854,1853.479614 893.354797,1868.700562 
	C892.804688,1891.327148 881.222961,1907.747192 861.157837,1918.466797 
	C824.187134,1938.218140 787.496948,1958.496704 750.454651,1978.111206 
	C732.038452,1987.862671 714.815674,2000.245483 694.000000,2005.000000 
	C689.310730,2005.000000 684.621521,2005.000000 679.466125,2005.000000 
	C669.512817,2002.584106 660.292480,1999.643188 652.496887,1993.305908 
	C643.156067,1985.712524 636.042603,1976.828125 634.059448,1964.507202 
	C633.342102,1960.050903 631.372192,1955.725220 631.134827,1951.277954 
	C630.699280,1943.118042 633.526367,1935.521606 637.224670,1928.362915 
	C639.905029,1923.174561 642.595947,1917.874268 646.144104,1913.291382 
	C648.690796,1910.002197 652.852234,1908.017578 655.952271,1905.089844 
	C660.665527,1900.638794 665.083252,1895.874634 670.048889,1890.812500 
	C664.705139,1890.812500 659.174805,1890.783569 653.644897,1890.818115 
	C639.329651,1890.907349 625.013489,1890.945923 610.699829,1891.153320 
	C596.477905,1891.359375 583.764404,1887.122559 573.097412,1877.795166 
	C566.097595,1871.674316 560.216064,1864.575317 558.685730,1854.771729 
	C557.912109,1849.815918 555.950073,1845.026978 555.369385,1840.063721 
	C554.167969,1829.796021 557.715881,1820.504761 561.753357,1811.214600 
	C565.504456,1802.583130 571.473816,1796.152588 579.497131,1790.742310 
	C581.480530,1789.588623 582.738403,1788.334229 583.996216,1787.079834 
	C584.934509,1786.931519 585.872742,1786.783325 587.571838,1786.769043 
	C589.566467,1785.685669 590.800293,1784.468262 592.034058,1783.250854 
	C593.411743,1783.111816 594.789490,1782.972656 596.792114,1783.168701 
	C598.631653,1783.236938 599.846191,1782.969971 601.060730,1782.703003 
	C601.374878,1782.580933 601.699707,1782.536011 602.778259,1782.745605 
	C606.349976,1782.953491 609.181946,1783.087280 612.006592,1782.994873 
	C619.790527,1782.739990 627.569031,1782.233276 635.354004,1782.114624 
	C647.753296,1781.925781 660.158508,1782.076172 672.554993,1781.801636 
	C674.395935,1781.760986 676.202881,1780.183716 678.025513,1779.317383 
	C679.406067,1779.245605 680.786560,1779.173828 682.663330,1779.551392 
	C689.097046,1783.172241 694.761780,1782.905518 698.026123,1779.300781 
	C705.043640,1779.167969 712.061096,1779.035034 719.757446,1779.223633 
	C722.940186,1779.993042 724.905945,1779.717773 724.627747,1776.426392 
z"/>
<path fill="#F1EEE7" opacity="1.000000" stroke="none" 
	d="
M1842.000000,1398.531494 
	C1839.997803,1400.342651 1837.995605,1401.685181 1835.638672,1402.658325 
	C1841.530640,1383.183105 1842.501343,1363.710693 1839.339233,1343.950928 
	C1840.004395,1343.963257 1840.669556,1343.975586 1841.667358,1343.993896 
	C1842.000000,1362.020874 1842.000000,1380.041870 1842.000000,1398.531494 
z"/>
<path fill="#FFCC4D" opacity="1.000000" stroke="none" 
	d="
M1839.206055,1343.574219 
	C1842.501343,1363.710693 1841.530640,1383.183105 1835.268555,1402.666992 
	C1830.366943,1415.773804 1824.070312,1427.539673 1813.394897,1436.534546 
	C1796.987183,1450.358887 1778.022827,1453.654907 1757.626343,1449.623047 
	C1731.068359,1444.373047 1707.864136,1431.590454 1685.840942,1416.348633 
	C1667.205566,1403.451538 1650.685425,1388.087646 1635.136475,1371.784546 
	C1621.024170,1356.987671 1607.760620,1341.356201 1594.560791,1325.723145 
	C1586.290405,1315.928101 1578.565552,1305.638428 1571.103027,1295.208008 
	C1566.514282,1288.794312 1562.984497,1281.632446 1558.795532,1274.921265 
	C1553.130493,1265.845459 1547.222534,1256.921509 1541.544189,1247.853882 
	C1536.934448,1240.492676 1532.509644,1233.015625 1527.675415,1225.050781 
	C1520.593140,1244.424316 1514.190063,1263.114136 1506.966919,1281.481445 
	C1483.884277,1340.178101 1455.984009,1396.416626 1421.298828,1449.236816 
	C1383.056396,1507.474121 1337.497559,1559.072144 1282.819336,1602.309326 
	C1244.764771,1632.401123 1203.285400,1656.963257 1158.339478,1675.432739 
	C1146.191406,1680.424683 1133.797241,1684.818481 1120.879761,1689.729980 
	C1118.462524,1690.654541 1116.681763,1691.335938 1114.900879,1692.017456 
	C1099.257690,1696.184692 1083.691528,1700.675781 1067.947021,1704.416748 
	C1055.281860,1707.426270 1042.401001,1709.528076 1029.176147,1712.062744 
	C1016.415588,1713.758545 1004.139709,1716.009766 991.763916,1716.961670 
	C969.754700,1718.654785 947.696655,1720.181763 925.636719,1720.600586 
	C907.891113,1720.937622 890.072510,1720.072388 872.359619,1718.755249 
	C854.341003,1717.415527 836.411682,1714.874878 818.445374,1712.841187 
	C817.626160,1712.748413 816.827942,1712.470093 815.647461,1712.188232 
	C799.729370,1708.983154 784.119324,1706.152344 768.659668,1702.656982 
	C757.539246,1700.142700 746.602417,1696.801025 735.624268,1693.685425 
	C733.456604,1693.070312 732.031067,1692.877441 731.803833,1696.073486 
	C726.454407,1687.422852 716.388733,1687.530884 708.148132,1684.392700 
	C674.357361,1671.524658 641.581726,1656.544189 611.336548,1636.648560 
	C593.238647,1624.743408 575.960815,1611.591919 558.309998,1599.006958 
	C541.091797,1586.730347 526.049805,1571.978271 511.426727,1556.863647 
	C498.543396,1543.547485 486.096497,1529.766724 474.111450,1515.635864 
	C461.838623,1501.165771 450.134979,1486.193115 438.639191,1471.092651 
	C433.560669,1464.421631 429.758362,1456.793579 425.105133,1449.780273 
	C420.391388,1442.675903 414.994232,1436.008179 410.534424,1428.756714 
	C405.726746,1420.939697 401.739410,1412.622559 397.239502,1404.610474 
	C394.424072,1399.597534 391.271240,1394.775269 388.370056,1389.808838 
	C386.650879,1386.865723 385.125061,1383.809570 383.515045,1380.802734 
	C378.780090,1371.959839 373.743439,1363.262085 369.397064,1354.232056 
	C364.987396,1345.070435 361.332336,1335.548340 357.212921,1326.243286 
	C353.128326,1317.016968 348.741455,1307.922485 344.757416,1298.654053 
	C342.837708,1294.188232 341.474487,1289.476196 339.977325,1284.837524 
	C338.431335,1280.047363 337.121765,1275.179688 335.525940,1270.407104 
	C334.662109,1267.823730 333.411621,1265.370117 332.344788,1262.854004 
	C330.245056,1257.901733 328.154205,1252.945557 326.055084,1247.993042 
	C322.926605,1240.611938 319.794281,1233.232422 316.435608,1225.314819 
	C310.122253,1236.233154 304.236206,1246.829834 297.962128,1257.191528 
	C269.384186,1304.387817 236.793350,1348.474731 196.133926,1386.090576 
	C171.568054,1408.817505 144.820755,1428.591064 113.658020,1441.484375 
	C96.472313,1448.594849 78.643234,1453.567871 59.734177,1449.971313 
	C54.082001,1448.896240 48.671795,1446.549194 42.543861,1444.503784 
	C38.656532,1442.113159 35.376087,1440.003662 32.095642,1437.894043 
	C32.095642,1437.894043 32.027527,1437.950195 31.912395,1437.630371 
	C30.200884,1435.873169 28.604504,1434.435669 27.008123,1432.998169 
	C26.945784,1432.834961 26.883444,1432.671875 26.777029,1431.945312 
	C24.473269,1428.968628 22.213581,1426.555298 19.953901,1424.141846 
	C19.893484,1423.955933 19.833061,1423.769897 19.770454,1422.949219 
	C19.631079,1421.345337 19.752085,1420.237305 19.317030,1419.428223 
	C14.663790,1410.774048 10.704955,1401.885620 8.716917,1392.170288 
	C8.439189,1390.812988 6.436434,1389.808960 5.232203,1388.641357 
	C5.248837,1388.284058 5.265465,1387.926636 5.457747,1386.956299 
	C5.689757,1374.850098 5.707907,1363.356567 5.842641,1351.864502 
	C5.863438,1350.090576 6.105695,1348.191650 6.781664,1346.574829 
	C9.893488,1339.131226 13.199169,1331.769043 16.427687,1324.374146 
	C18.695251,1319.180420 20.926344,1313.970703 23.220922,1308.788940 
	C24.522175,1305.850342 25.783438,1302.880737 27.305038,1300.055786 
	C29.394562,1296.176392 31.765553,1292.449707 33.921795,1288.604858 
	C36.662514,1283.717896 39.367699,1278.809082 41.979504,1273.852417 
	C44.509640,1269.050537 46.861309,1264.154907 49.367176,1259.339966 
	C51.563564,1255.119751 53.912640,1250.978882 56.107647,1246.757935 
	C58.660122,1241.849609 60.940807,1236.792236 63.657997,1231.979248 
	C68.028618,1224.237915 72.910393,1216.778320 77.110847,1208.949951 
	C81.198456,1201.331909 84.682579,1193.391113 88.467560,1185.609375 
	C91.150604,1180.093262 93.749069,1174.528931 96.640411,1169.122559 
	C102.138344,1158.841919 108.002708,1148.753906 113.353844,1138.399292 
	C116.491821,1132.327148 118.844353,1125.854126 121.711510,1119.635742 
	C124.871758,1112.781738 128.414215,1106.098755 131.424118,1099.182007 
	C134.253677,1092.679688 136.347534,1085.854126 139.241318,1079.383789 
	C142.107010,1072.976196 145.658920,1066.879150 148.729324,1060.558228 
	C150.289261,1057.346802 151.581909,1053.988159 152.762650,1050.614624 
	C154.366364,1046.032593 155.354889,1041.198364 157.315186,1036.786743 
	C160.274887,1030.126221 164.549561,1023.985596 166.956558,1017.162231 
	C169.300354,1010.518066 171.275345,1003.840637 174.192871,997.324402 
	C177.771957,989.330505 179.515610,980.516052 182.080368,972.064697 
	C182.268143,971.446045 182.741364,970.919067 182.976837,970.308960 
	C184.984344,965.107605 187.031906,959.920227 188.939087,954.681946 
	C190.661758,949.950317 192.245041,945.167358 193.849976,940.393616 
	C195.860428,934.414001 197.923203,928.449463 199.790268,922.424744 
	C201.512482,916.867676 202.798889,911.169617 204.661026,905.663452 
	C206.351379,900.665405 208.952606,895.957886 210.434006,890.911499 
	C212.117157,885.177673 212.924271,879.191895 214.258698,873.349060 
	C215.449020,868.137329 216.830322,862.968994 218.155960,857.788879 
	C218.275146,857.323059 218.674210,856.933777 218.824509,856.470398 
	C219.811569,853.427856 220.825256,850.391602 221.704498,847.317383 
	C222.107315,845.908875 222.137177,844.397461 222.486038,842.969360 
	C224.558365,834.486084 226.700562,826.019897 228.748123,817.530762 
	C229.055466,816.256470 228.737579,814.809998 229.137848,813.583130 
	C231.234818,807.155457 234.275406,800.911926 235.411148,794.332153 
	C236.380463,788.716675 237.325851,783.232910 238.752197,777.663452 
	C241.098450,768.502197 241.794403,758.873474 242.659714,749.393799 
	C243.218170,743.275757 243.323944,737.029297 242.789658,730.914062 
	C240.834839,708.539856 246.192719,686.654419 246.857162,664.468567 
	C246.876770,663.813965 246.864441,662.947571 247.249176,662.547302 
	C250.964645,658.681519 249.670090,653.824524 250.016129,649.286255 
	C250.205444,646.803345 249.786758,643.922852 250.901413,641.923828 
	C255.178268,634.253662 253.341660,626.017151 253.868088,617.997925 
	C253.963974,616.537476 254.316635,615.076782 254.696884,613.655334 
	C255.655411,610.072205 256.877563,606.550537 257.665649,602.932800 
	C259.010498,596.759338 260.092285,590.528748 261.326996,584.330627 
	C261.417267,583.877625 261.956757,583.527832 262.106842,583.070740 
	C264.062683,577.114197 266.062103,571.170227 267.889954,565.174072 
	C269.067383,561.311646 270.011658,557.376343 270.996582,553.457703 
	C271.356567,552.025452 271.425903,550.518188 271.810394,549.094421 
	C273.367279,543.329529 274.942596,537.568359 276.618225,531.837097 
	C277.517761,528.760376 278.479919,525.684082 279.688782,522.719727 
	C281.618652,517.987000 283.854614,513.379761 285.819275,508.660400 
	C287.966766,503.501678 289.937500,498.269623 292.014526,493.081207 
	C293.591583,489.141693 295.284668,485.247345 296.798065,481.283997 
	C298.441193,476.980927 299.671112,472.500458 301.575623,468.322723 
	C303.236450,464.679565 305.804749,461.458466 307.582550,457.858490 
	C310.962891,451.013580 313.903351,443.949860 317.336365,437.133057 
	C319.840790,432.160156 322.930847,427.485870 325.598236,422.590393 
	C328.596130,417.088318 331.386353,411.473511 334.317261,405.934357 
	C336.181366,402.411407 338.164337,398.951508 340.043427,395.436279 
	C341.679962,392.374725 342.912262,389.037811 344.906647,386.238251 
	C350.323608,378.634369 356.043060,371.245697 361.655823,363.781708 
	C367.181061,356.434174 372.920715,349.237396 378.184082,341.707336 
	C381.444031,337.043488 383.991333,331.881561 386.858551,326.943207 
	C386.858551,326.943207 386.950989,326.951538 387.306763,326.922729 
	C388.369171,326.539673 389.306274,326.366272 389.747803,325.803833 
	C395.961487,317.888916 402.150513,309.953583 408.238281,301.941681 
	C409.641907,300.094452 410.642578,297.941101 411.828674,295.928589 
	C411.828674,295.928589 411.931915,295.928284 412.296051,295.888428 
	C414.772522,293.793671 417.022949,291.859192 418.952789,289.645233 
	C420.455444,287.921295 421.558899,285.849426 422.839752,283.932190 
	C422.839752,283.932190 422.939362,283.939056 423.302399,283.913574 
	C424.540955,283.489777 425.612427,283.293823 426.263245,282.663513 
	C441.438538,267.967255 456.543335,253.198212 471.721252,238.504639 
	C476.380920,233.993637 480.974579,229.361816 486.025269,225.318481 
	C495.708923,217.566147 505.727112,210.233032 515.545166,202.646591 
	C519.120361,199.884003 522.377747,196.696793 526.036682,194.059143 
	C530.718933,190.683762 535.714844,187.746964 540.474792,184.474564 
	C544.966919,181.386307 549.191223,177.892822 553.781494,174.966949 
	C559.737427,171.170593 565.972595,167.815140 572.019104,164.156845 
	C574.637024,162.572952 576.997925,160.561523 579.628113,159.001465 
	C583.843933,156.500809 588.176514,154.195526 592.479187,151.843323 
	C595.523010,150.179352 598.547852,148.467560 601.673767,146.970474 
	C605.358704,145.205612 609.207947,143.780014 612.871216,141.974411 
	C619.640381,138.637970 626.300232,135.080444 633.054993,131.713928 
	C637.797546,129.350266 642.584534,127.067101 647.421143,124.903351 
	C651.491577,123.082336 655.612854,121.349480 659.801392,119.824333 
	C664.777771,118.012306 669.886108,116.563492 674.868103,114.765640 
	C678.031921,113.623924 681.074646,112.144386 684.162598,110.795494 
	C686.414001,109.812019 688.628967,108.741264 690.903503,107.816017 
	C691.953735,107.388802 693.128418,107.278816 694.210205,106.916084 
	C697.208679,105.910667 700.189941,104.853821 703.173706,103.804970 
	C704.235657,103.431671 705.287415,103.028709 706.339966,102.629242 
	C708.720703,101.725731 711.072083,100.734360 713.488037,99.938293 
	C715.025024,99.431862 716.705322,99.356461 718.236755,98.837975 
	C724.956177,96.563049 731.637756,94.176697 738.352539,91.887703 
	C739.276733,91.572655 740.357361,91.719543 741.284729,91.410271 
	C747.707947,89.268265 753.991211,86.563553 760.548767,85.004288 
	C768.515869,83.109871 776.694092,82.067650 784.809998,80.850044 
	C788.605835,80.280563 792.421448,80.384682 794.281616,75.856857 
	C794.707886,74.819237 797.121338,74.437767 798.694031,74.068199 
	C801.166809,73.487106 803.702209,73.172409 806.211060,72.744919 
	C806.235046,72.368881 806.259033,71.992851 806.282959,71.616814 
	C800.515747,70.420753 794.748474,69.224701 788.981201,68.028641 
	C781.777832,66.082687 774.473816,64.443176 767.394897,62.118317 
	C757.022583,58.711815 746.741699,54.991676 736.581909,50.998123 
	C734.133545,50.035728 732.233032,47.558685 730.225220,45.627724 
	C727.811279,43.306183 728.146423,40.647675 729.541077,37.874828 
	C733.443787,30.115795 739.627441,24.809162 747.166260,20.734049 
	C752.029358,18.105318 756.364929,14.385912 761.392273,12.205009 
	C767.578979,9.521149 774.199890,7.791434 780.711060,5.920435 
	C784.329834,4.880576 788.081299,3.979195 791.818665,3.744596 
	C798.868835,3.302060 806.166992,2.245371 812.969604,3.527200 
	C822.492798,5.321682 832.257751,7.233391 840.741577,12.624246 
	C841.536682,13.129483 842.644714,13.227273 843.627441,13.339212 
	C855.960999,14.744039 865.945496,21.290241 876.164551,27.637699 
	C890.648132,36.634037 903.711304,47.345715 916.332458,58.704922 
	C921.052124,62.952637 929.077759,62.351402 933.124329,57.597816 
	C940.359497,49.098515 949.650574,43.233101 958.750793,37.074429 
	C963.486023,33.869762 967.825623,30.075733 972.593994,26.926502 
	C976.038513,24.651592 979.873718,22.958363 983.575378,21.086166 
	C985.968567,19.875744 988.425232,18.788382 990.871094,17.684885 
	C995.749878,15.483684 1000.626343,13.276169 1005.536194,11.145864 
	C1006.868530,10.567750 1008.297729,10.175291 1009.716797,9.845103 
	C1011.164307,9.508285 1012.874146,9.742157 1014.089478,9.054832 
	C1021.745544,4.724795 1030.409302,4.081322 1038.736450,2.863170 
	C1043.849976,2.115125 1049.413208,3.644150 1054.650879,4.740897 
	C1061.343872,6.142367 1067.995117,7.879282 1074.509644,9.956474 
	C1080.254272,11.788209 1085.795044,14.265200 1091.409912,16.497162 
	C1095.143921,17.981501 1098.899170,19.428610 1102.551025,21.097921 
	C1104.888184,22.166277 1107.054077,23.609255 1109.650391,24.900074 
	C1110.403564,25.247292 1110.803223,25.578745 1111.538818,26.354237 
	C1112.481689,27.569246 1113.054077,28.370731 1113.701050,29.106432 
	C1120.968872,37.370480 1120.515991,42.657257 1111.236572,48.755875 
	C1106.440552,51.907928 1100.973511,54.038700 1095.428711,56.716869 
	C1087.363403,59.214500 1079.678833,61.626167 1071.599609,64.032913 
	C1067.479736,65.041100 1063.754639,66.054207 1059.618042,67.048828 
	C1052.046753,68.630119 1044.886719,70.229904 1037.726807,71.829681 
	C1037.783447,72.155495 1037.840088,72.481300 1037.896606,72.807114 
	C1042.287476,73.492584 1046.678223,74.178055 1051.431396,74.958984 
	C1054.159546,76.151840 1056.436279,77.546646 1058.908936,78.288223 
	C1065.141724,80.157570 1070.486328,84.016045 1077.567261,84.266930 
	C1086.306152,84.576553 1094.974609,86.893822 1103.669189,88.369125 
	C1104.145630,88.449966 1104.568359,88.806786 1105.039429,88.965324 
	C1111.798584,91.239975 1118.531982,93.597351 1125.333496,95.738022 
	C1130.732422,97.437256 1136.541016,98.184906 1141.582520,100.584488 
	C1148.386230,103.822701 1155.082886,106.942505 1162.638184,107.837303 
	C1163.434814,107.931633 1164.220215,108.254036 1164.973022,108.563110 
	C1170.330566,110.763031 1175.682373,112.977341 1181.027954,115.206360 
	C1185.380493,117.021278 1189.765991,118.765755 1194.055420,120.720383 
	C1198.318970,122.663193 1202.480713,124.829674 1206.687500,126.897224 
	C1209.412476,128.236588 1212.115234,129.623978 1214.869263,130.900879 
	C1218.643921,132.651016 1222.512451,134.205780 1226.239868,136.048477 
	C1230.425415,138.117630 1234.484741,140.440079 1238.623291,142.606079 
	C1245.319824,146.110779 1252.040039,149.570114 1258.742676,153.062973 
	C1264.781250,156.209702 1270.809692,159.375656 1276.842651,162.533142 
	C1276.842651,162.533142 1276.820190,162.812714 1276.953735,163.262558 
	C1277.432617,164.262222 1277.645996,165.038544 1278.143066,165.328461 
	C1287.985352,171.069290 1298.227783,176.212112 1307.635986,182.587280 
	C1319.294434,190.487213 1330.273193,199.391220 1341.533081,207.877930 
	C1345.371460,210.770859 1349.172485,213.713409 1352.990601,216.633301 
	C1354.334717,217.712845 1355.678955,218.792404 1357.534302,220.284424 
	C1359.646606,221.957916 1361.247803,223.218933 1362.848877,224.479965 
	C1362.894653,224.753098 1363.043579,224.947327 1363.654419,225.389313 
	C1365.964722,227.229630 1367.916016,228.743301 1369.867310,230.256989 
	C1377.555786,237.513016 1385.594849,244.436127 1392.864746,252.089706 
	C1411.912964,272.142944 1431.318237,291.923859 1449.255737,312.944366 
	C1463.980957,330.200348 1477.896362,348.374542 1490.193115,367.418732 
	C1505.838501,391.648956 1520.347290,416.715851 1533.775269,442.248230 
	C1549.256348,471.683960 1561.328979,502.689087 1571.468262,534.429993 
	C1580.128052,561.539673 1587.735596,588.910278 1592.462891,616.972961 
	C1595.800049,636.783203 1598.804810,656.692627 1600.803833,676.673218 
	C1602.872070,697.344482 1604.581421,718.159180 1604.499512,738.903503 
	C1604.435547,755.155640 1608.100464,770.504700 1611.555298,785.968872 
	C1616.586792,808.491882 1622.120972,830.921875 1628.175415,853.191833 
	C1634.579468,876.748047 1641.637573,900.133728 1648.803589,923.473083 
	C1653.921265,940.141296 1659.237427,956.776611 1665.276611,973.126892 
	C1673.452881,995.263184 1682.109497,1017.234802 1691.111450,1039.049561 
	C1699.733032,1059.942627 1708.718384,1080.702026 1718.169922,1101.231689 
	C1727.951904,1122.479492 1738.364258,1143.441162 1748.731934,1164.413940 
	C1756.754272,1180.641968 1764.925903,1196.803833 1773.407837,1212.795288 
	C1783.020386,1230.917847 1793.294556,1248.690552 1802.839966,1266.847290 
	C1813.970825,1288.020142 1824.730103,1309.391479 1835.386230,1330.808105 
	C1837.277222,1334.608643 1837.876953,1339.051392 1839.206055,1343.574219 
M751.065857,752.564392 
	C751.362305,756.532532 751.790100,760.496033 751.931824,764.469727 
	C752.466492,779.458618 755.937012,793.755127 762.675232,807.105286 
	C774.791138,831.110107 795.367493,845.000244 819.928040,853.843140 
	C844.874573,862.825073 870.957947,865.828552 897.154602,866.744507 
	C926.869629,867.783386 956.654480,867.779602 986.189575,863.020264 
	C1005.463440,859.914490 1024.248535,855.303650 1041.684937,846.161133 
	C1065.646729,833.597168 1081.516968,814.503357 1088.388306,788.218323 
	C1093.979126,766.831421 1094.054077,745.191833 1089.942383,723.628967 
	C1079.463501,668.674744 1049.194458,627.848877 999.963745,601.717712 
	C965.511780,583.430969 928.576355,578.842468 890.171143,585.911560 
	C850.646729,593.186768 818.012878,612.657410 792.052734,642.822388 
	C765.291199,673.918457 752.365601,710.699402 751.065857,752.564392 
M619.385803,663.863403 
	C635.442871,642.770081 641.052612,619.092834 635.626587,593.241333 
	C625.569580,545.325378 577.268372,516.199402 529.689148,528.920532 
	C483.048767,541.390625 455.854706,591.124573 471.070740,637.253235 
	C481.274292,668.186157 502.891327,687.974243 534.667114,694.545349 
	C568.286865,701.497742 596.670471,690.745544 619.385803,663.863403 
M1376.680054,602.013550 
	C1376.522339,601.195862 1376.322266,600.383789 1376.212769,599.559692 
	C1371.000854,560.319702 1338.722168,529.513428 1299.276489,526.141602 
	C1246.600342,521.638855 1203.007446,564.935242 1206.833496,617.955811 
	C1210.570190,669.737061 1260.573242,706.154114 1311.110962,694.382690 
	C1348.403442,685.696472 1380.710571,650.207153 1376.680054,602.013550 
z"/>
<path fill="#EFEBE0" opacity="1.000000" stroke="none" 
	d="
M386.534607,327.009827 
	C383.991333,331.881561 381.444031,337.043488 378.184082,341.707336 
	C372.920715,349.237396 367.181061,356.434174 361.655823,363.781708 
	C356.043060,371.245697 350.323608,378.634369 344.906647,386.238251 
	C342.912262,389.037811 341.679962,392.374725 340.043427,395.436279 
	C338.164337,398.951508 336.181366,402.411407 334.317261,405.934357 
	C331.386353,411.473511 328.596130,417.088318 325.598236,422.590393 
	C322.930847,427.485870 319.840790,432.160156 317.336365,437.133057 
	C313.903351,443.949860 310.962891,451.013580 307.582550,457.858490 
	C305.804749,461.458466 303.236450,464.679565 301.575623,468.322723 
	C299.671112,472.500458 298.441193,476.980927 296.798065,481.283997 
	C295.284668,485.247345 293.591583,489.141693 292.014526,493.081207 
	C289.937500,498.269623 287.966766,503.501678 285.819275,508.660400 
	C283.854614,513.379761 281.618652,517.987000 279.688782,522.719727 
	C278.479919,525.684082 277.517761,528.760376 276.618225,531.837097 
	C274.942596,537.568359 273.367279,543.329529 271.810394,549.094421 
	C271.425903,550.518188 271.356567,552.025452 270.996582,553.457703 
	C270.011658,557.376343 269.067383,561.311646 267.889954,565.174072 
	C266.062103,571.170227 264.062683,577.114197 262.106842,583.070740 
	C261.956757,583.527832 261.417267,583.877625 261.326996,584.330627 
	C260.092285,590.528748 259.010498,596.759338 257.665649,602.932800 
	C256.877563,606.550537 255.655411,610.072205 254.696884,613.655334 
	C254.316635,615.076782 253.963974,616.537476 253.868088,617.997925 
	C253.341660,626.017151 255.178268,634.253662 250.901413,641.923828 
	C249.786758,643.922852 250.205444,646.803345 250.016129,649.286255 
	C249.670090,653.824524 250.964645,658.681519 247.249176,662.547302 
	C246.864441,662.947571 246.876770,663.813965 246.857162,664.468567 
	C246.192719,686.654419 240.834839,708.539856 242.789658,730.914062 
	C243.323944,737.029297 243.218170,743.275757 242.659714,749.393799 
	C241.794403,758.873474 241.098450,768.502197 238.752197,777.663452 
	C237.325851,783.232910 236.380463,788.716675 235.411148,794.332153 
	C234.275406,800.911926 231.234818,807.155457 229.137848,813.583130 
	C228.737579,814.809998 229.055466,816.256470 228.748123,817.530762 
	C226.700562,826.019897 224.558365,834.486084 222.486038,842.969360 
	C222.137177,844.397461 222.107315,845.908875 221.704498,847.317383 
	C220.825256,850.391602 219.811569,853.427856 218.824509,856.470398 
	C218.674210,856.933777 218.275146,857.323059 218.155960,857.788879 
	C216.830322,862.968994 215.449020,868.137329 214.258698,873.349060 
	C212.924271,879.191895 212.117157,885.177673 210.434006,890.911499 
	C208.952606,895.957886 206.351379,900.665405 204.661026,905.663452 
	C202.798889,911.169617 201.512482,916.867676 199.790268,922.424744 
	C197.923203,928.449463 195.860428,934.414001 193.849976,940.393616 
	C192.245041,945.167358 190.661758,949.950317 188.939087,954.681946 
	C187.031906,959.920227 184.984344,965.107605 182.976837,970.308960 
	C182.741364,970.919067 182.268143,971.446045 182.080368,972.064697 
	C179.515610,980.516052 177.771957,989.330505 174.192871,997.324402 
	C171.275345,1003.840637 169.300354,1010.518066 166.956558,1017.162231 
	C164.549561,1023.985596 160.274887,1030.126221 157.315186,1036.786743 
	C155.354889,1041.198364 154.366364,1046.032593 152.762650,1050.614624 
	C151.581909,1053.988159 150.289261,1057.346802 148.729324,1060.558228 
	C145.658920,1066.879150 142.107010,1072.976196 139.241318,1079.383789 
	C136.347534,1085.854126 134.253677,1092.679688 131.424118,1099.182007 
	C128.414215,1106.098755 124.871758,1112.781738 121.711510,1119.635742 
	C118.844353,1125.854126 116.491821,1132.327148 113.353844,1138.399292 
	C108.002708,1148.753906 102.138344,1158.841919 96.640411,1169.122559 
	C93.749069,1174.528931 91.150604,1180.093262 88.467560,1185.609375 
	C84.682579,1193.391113 81.198456,1201.331909 77.110847,1208.949951 
	C72.910393,1216.778320 68.028618,1224.237915 63.657997,1231.979248 
	C60.940807,1236.792236 58.660122,1241.849609 56.107647,1246.757935 
	C53.912640,1250.978882 51.563564,1255.119751 49.367176,1259.339966 
	C46.861309,1264.154907 44.509640,1269.050537 41.979504,1273.852417 
	C39.367699,1278.809082 36.662514,1283.717896 33.921795,1288.604858 
	C31.765553,1292.449707 29.394562,1296.176392 27.305038,1300.055786 
	C25.783438,1302.880737 24.522175,1305.850342 23.220922,1308.788940 
	C20.926344,1313.970703 18.695251,1319.180420 16.427687,1324.374146 
	C13.199169,1331.769043 9.893488,1339.131226 6.781664,1346.574829 
	C6.105695,1348.191650 5.863438,1350.090576 5.842641,1351.864502 
	C5.707907,1363.356567 5.689757,1374.850098 5.419475,1386.690186 
	C4.570082,1378.895996 3.838642,1370.760254 3.357606,1362.609985 
	C3.213233,1360.163818 4.103973,1357.653687 3.938965,1355.212158 
	C3.390779,1347.101074 6.445929,1340.162231 10.057882,1333.180786 
	C12.259356,1328.925659 13.328976,1324.094238 15.032659,1319.569092 
	C16.336269,1316.106567 17.624174,1312.610229 19.295593,1309.320190 
	C22.446392,1303.117920 25.793589,1297.011353 29.202353,1290.945557 
	C31.833830,1286.262939 34.778236,1281.756226 37.412888,1277.075317 
	C40.743977,1271.157104 43.894680,1265.137207 47.135994,1259.168213 
	C52.609299,1249.088989 58.161812,1239.052124 63.549843,1228.927612 
	C67.750496,1221.033936 71.721825,1213.018555 75.854103,1205.088013 
	C78.018806,1200.933716 80.417427,1196.899170 82.517830,1192.713989 
	C85.133858,1187.501221 87.326736,1182.066772 90.106812,1176.947754 
	C94.261055,1169.298828 99.020790,1161.973389 103.046585,1154.261719 
	C106.361343,1147.911987 108.905777,1141.164429 111.944046,1134.664429 
	C113.650993,1131.012695 115.722198,1127.532837 117.527634,1123.924683 
	C119.115974,1120.750366 120.614265,1117.528198 122.062706,1114.287109 
	C126.916626,1103.425781 131.854309,1092.599609 136.522430,1081.658569 
	C140.606369,1072.086670 144.155411,1062.284058 148.335663,1052.756592 
	C152.495102,1043.276367 157.374191,1034.110474 161.485458,1024.611084 
	C163.528122,1019.891235 164.370132,1014.666382 166.100128,1009.792419 
	C167.665237,1005.383057 169.738708,1001.156189 171.514359,996.818787 
	C173.046402,993.076538 174.672318,989.354919 175.899963,985.510254 
	C177.487396,980.538696 178.536148,975.393433 180.161545,970.435974 
	C181.573166,966.130432 183.596283,962.028870 185.111954,957.753113 
	C187.205841,951.846130 188.999527,945.833069 191.066193,939.915894 
	C193.032410,934.286438 195.299271,928.760925 197.220276,923.117004 
	C198.952957,918.026306 200.377991,912.831482 201.972092,907.692932 
	C203.836243,901.683594 205.721725,895.680786 207.636627,889.687500 
	C207.938004,888.744202 208.600311,887.903870 208.829147,886.951965 
	C210.111481,881.617493 211.079819,876.196228 212.600342,870.933167 
	C214.423553,864.622498 216.707932,858.445496 218.757294,852.199036 
	C219.117752,851.100342 219.360840,849.954590 219.562653,848.813660 
	C220.754303,842.077393 221.589828,835.257690 223.178284,828.617432 
	C224.942261,821.243652 227.611465,814.089355 229.466232,806.733521 
	C231.259598,799.621094 232.449509,792.358704 234.039688,785.192139 
	C234.887146,781.372864 236.445557,777.673279 236.954956,773.823303 
	C239.938919,751.270630 241.487976,728.651733 241.236526,705.849304 
	C241.122772,695.532776 243.394531,685.192444 244.536987,674.857666 
	C244.791611,672.554260 244.648331,670.194580 245.039993,667.921387 
	C245.753220,663.781860 246.981735,659.721130 247.533920,655.566284 
	C248.252319,650.160645 248.189316,644.642029 249.052032,639.266663 
	C250.837265,628.142944 253.027573,617.084473 255.013779,605.992432 
	C255.421143,603.717529 255.448074,601.357361 256.023376,599.132935 
	C257.792938,592.290894 259.726288,585.490967 261.642883,578.687805 
	C261.910278,577.738647 262.631042,576.901062 262.818207,575.948181 
	C263.978546,570.041443 264.674835,564.015869 266.244843,558.224792 
	C267.964722,551.880859 270.569702,545.782166 272.588318,539.512085 
	C274.225525,534.426636 275.399048,529.190125 277.083862,524.122192 
	C278.825226,518.884155 280.956940,513.776733 282.877655,508.597290 
	C284.621490,503.894745 286.233063,499.141754 288.048645,494.467590 
	C289.612305,490.441986 291.315826,486.466919 293.074310,482.521576 
	C296.010345,475.934357 298.970154,469.355865 302.053864,462.837036 
	C304.123779,458.461426 306.459595,454.212372 308.609009,449.873322 
	C309.821014,447.426605 310.835449,444.882141 312.044342,442.433807 
	C316.048431,434.324738 319.885742,426.122314 324.211151,418.186890 
	C326.984528,413.098785 330.620514,408.488739 333.655914,403.533386 
	C336.465393,398.946899 339.005737,394.194672 341.636414,389.499664 
	C344.374207,384.613525 346.744293,379.482483 349.871460,374.862122 
	C355.232178,366.941620 360.916504,359.227875 366.724579,351.625671 
	C373.066162,343.325134 379.702698,335.249878 386.534607,327.009827 
z"/>
<path fill="#EFEBE0" opacity="1.000000" stroke="none" 
	d="
M788.986206,68.405807 
	C794.748474,69.224701 800.515747,70.420753 806.282959,71.616814 
	C806.259033,71.992851 806.235046,72.368881 806.211060,72.744919 
	C803.702209,73.172409 801.166809,73.487106 798.694031,74.068199 
	C797.121338,74.437767 794.707886,74.819237 794.281616,75.856857 
	C792.421448,80.384682 788.605835,80.280563 784.809998,80.850044 
	C776.694092,82.067650 768.515869,83.109871 760.548767,85.004288 
	C753.991211,86.563553 747.707947,89.268265 741.284729,91.410271 
	C740.357361,91.719543 739.276733,91.572655 738.352539,91.887703 
	C731.637756,94.176697 724.956177,96.563049 718.236755,98.837975 
	C716.705322,99.356461 715.025024,99.431862 713.488037,99.938293 
	C711.072083,100.734360 708.720703,101.725731 706.339966,102.629242 
	C705.287415,103.028709 704.235657,103.431671 703.173706,103.804970 
	C700.189941,104.853821 697.208679,105.910667 694.210205,106.916084 
	C693.128418,107.278816 691.953735,107.388802 690.903503,107.816017 
	C688.628967,108.741264 686.414001,109.812019 684.162598,110.795494 
	C681.074646,112.144386 678.031921,113.623924 674.868103,114.765640 
	C669.886108,116.563492 664.777771,118.012306 659.801392,119.824333 
	C655.612854,121.349480 651.491577,123.082336 647.421143,124.903351 
	C642.584534,127.067101 637.797546,129.350266 633.054993,131.713928 
	C626.300232,135.080444 619.640381,138.637970 612.871216,141.974411 
	C609.207947,143.780014 605.358704,145.205612 601.673767,146.970474 
	C598.547852,148.467560 595.523010,150.179352 592.479187,151.843323 
	C588.176514,154.195526 583.843933,156.500809 579.628113,159.001465 
	C576.997925,160.561523 574.637024,162.572952 572.019104,164.156845 
	C565.972595,167.815140 559.737427,171.170593 553.781494,174.966949 
	C549.191223,177.892822 544.966919,181.386307 540.474792,184.474564 
	C535.714844,187.746964 530.718933,190.683762 526.036682,194.059143 
	C522.377747,196.696793 519.120361,199.884003 515.545166,202.646591 
	C505.727112,210.233032 495.708923,217.566147 486.025269,225.318481 
	C480.974579,229.361816 476.380920,233.993637 471.721252,238.504639 
	C456.543335,253.198212 441.438538,267.967255 426.263245,282.663513 
	C425.612427,283.293823 424.540955,283.489777 423.298889,283.863770 
	C425.437775,280.590851 427.627167,277.025299 430.507538,274.152557 
	C439.451477,265.232269 448.587372,256.500244 457.781891,247.836472 
	C467.241302,238.923004 476.710388,230.008850 486.463257,221.422104 
	C491.783752,216.737793 497.676727,212.698990 503.356140,208.428360 
	C509.221130,204.018204 515.143311,199.684189 521.034668,195.309036 
	C527.611389,190.425003 534.043884,185.331909 540.791382,180.696976 
	C548.226013,175.590012 555.806458,170.660355 563.582764,166.095352 
	C571.633911,161.369019 580.068298,157.299957 588.198242,152.701691 
	C594.032104,149.402069 599.539612,145.524719 605.380127,142.238174 
	C610.714111,139.236664 616.259277,136.597839 621.784485,133.951797 
	C629.866882,130.081009 637.952942,126.205597 646.159851,122.611862 
	C650.431824,120.741226 655.040894,119.652061 659.362854,117.880882 
	C664.501343,115.775078 669.432190,113.162605 674.570251,111.055580 
	C679.181152,109.164703 683.949158,107.656425 688.651123,105.988426 
	C692.435608,104.645889 696.242188,103.363808 700.007996,101.970940 
	C705.752441,99.846199 711.439453,97.563065 717.208008,95.507507 
	C722.648682,93.568825 728.160278,91.828880 733.646179,90.018028 
	C736.751892,88.992867 739.807495,87.702133 742.992004,87.051048 
	C751.957031,85.218086 761.055420,83.985413 769.951660,81.883270 
	C777.530701,80.092400 784.902222,77.423157 791.733215,75.335732 
	C790.673340,72.802917 789.832275,70.792946 788.986206,68.405807 
z"/>
<path fill="#EFEBE0" opacity="1.000000" stroke="none" 
	d="
M411.497498,295.985168 
	C410.642578,297.941101 409.641907,300.094452 408.238281,301.941681 
	C402.150513,309.953583 395.961487,317.888916 389.747803,325.803833 
	C389.306274,326.366272 388.369171,326.539673 387.301697,326.876617 
	C393.463379,315.366241 401.334290,304.933197 411.497498,295.985168 
z"/>
<path fill="#EFEBE0" opacity="1.000000" stroke="none" 
	d="
M5.181312,1389.041016 
	C6.436434,1389.808960 8.439189,1390.812988 8.716917,1392.170288 
	C10.704955,1401.885620 14.663790,1410.774048 19.317030,1419.428223 
	C19.752085,1420.237305 19.631079,1421.345337 19.639832,1422.686768 
	C16.874369,1418.445435 13.745299,1414.036499 11.722234,1409.167969 
	C9.068544,1402.781860 7.287061,1396.033203 5.181312,1389.041016 
z"/>
<path fill="#EFEBE0" opacity="1.000000" stroke="none" 
	d="
M422.507935,283.984436 
	C421.558899,285.849426 420.455444,287.921295 418.952789,289.645233 
	C417.022949,291.859192 414.772522,293.793671 412.292969,295.836914 
	C415.342529,291.895691 418.759308,287.966156 422.507935,283.984436 
z"/>
<path fill="#EFEBE0" opacity="1.000000" stroke="none" 
	d="
M32.071243,1438.270386 
	C35.376087,1440.003662 38.656532,1442.113159 42.181770,1444.469849 
	C37.111858,1445.865112 35.038998,1441.469971 32.071243,1438.270386 
z"/>
<path fill="#EFEBE0" opacity="1.000000" stroke="none" 
	d="
M19.999279,1424.477905 
	C22.213581,1426.555298 24.473269,1428.968628 26.630552,1431.728027 
	C24.366987,1429.654053 22.205826,1427.234009 19.999279,1424.477905 
z"/>
<path fill="#EFEBE0" opacity="1.000000" stroke="none" 
	d="
M27.002867,1433.372559 
	C28.604504,1434.435669 30.200884,1435.873169 31.943573,1437.607422 
	C29.053400,1438.158569 27.350567,1436.779419 27.002867,1433.372559 
z"/>
<path fill="#EDEAE5" opacity="1.000000" stroke="none" 
	d="
M1095.428711,56.716873 
	C1095.307007,58.201546 1094.804321,59.772175 1094.132812,61.662766 
	C1093.964111,61.982731 1093.481934,61.985691 1093.240967,61.992767 
	C1087.613281,61.369308 1082.878540,63.013115 1078.267578,65.721321 
	C1076.336548,66.855492 1073.494873,69.085236 1072.008057,64.423965 
	C1079.678833,61.626167 1087.363403,59.214500 1095.428711,56.716873 
z"/>
<path fill="#E8E4DE" opacity="1.000000" stroke="none" 
	d="
M1114.941650,1692.429199 
	C1116.681763,1691.335938 1118.462524,1690.654541 1120.613037,1689.967163 
	C1121.083008,1693.907227 1120.999023,1697.777710 1116.513672,1700.023926 
	C1115.757935,1697.645142 1115.370117,1695.242920 1114.941650,1692.429199 
z"/>
<path fill="#F4900C" opacity="1.000000" stroke="none" 
	d="
M751.067078,752.095276 
	C752.365601,710.699402 765.291199,673.918457 792.052734,642.822388 
	C818.012878,612.657410 850.646729,593.186768 890.171143,585.911560 
	C928.576355,578.842468 965.511780,583.430969 999.963745,601.717712 
	C1049.194458,627.848877 1079.463501,668.674744 1089.942383,723.628967 
	C1094.054077,745.191833 1093.979126,766.831421 1088.388306,788.218323 
	C1081.516968,814.503357 1065.646729,833.597168 1041.684937,846.161133 
	C1024.248535,855.303650 1005.463440,859.914490 986.189575,863.020264 
	C956.654480,867.779602 926.869629,867.783386 897.154602,866.744507 
	C870.957947,865.828552 844.874573,862.825073 819.928040,853.843140 
	C795.367493,845.000244 774.791138,831.110107 762.675232,807.105286 
	C755.937012,793.755127 752.466492,779.458618 751.931824,764.469727 
	C751.790100,760.496033 751.362305,756.532532 751.067078,752.095276 
z"/>
<path fill="#662113" opacity="1.000000" stroke="none" 
	d="
M619.167114,664.144043 
	C596.670471,690.745544 568.286865,701.497742 534.667114,694.545349 
	C502.891327,687.974243 481.274292,668.186157 471.070740,637.253235 
	C455.854706,591.124573 483.048767,541.390625 529.689148,528.920532 
	C577.268372,516.199402 625.569580,545.325378 635.626587,593.241333 
	C641.052612,619.092834 635.442871,642.770081 619.167114,664.144043 
z"/>
<path fill="#662113" opacity="1.000000" stroke="none" 
	d="
M1376.737183,602.469849 
	C1380.710571,650.207153 1348.403442,685.696472 1311.110962,694.382690 
	C1260.573242,706.154114 1210.570190,669.737061 1206.833496,617.955811 
	C1203.007446,564.935242 1246.600342,521.638855 1299.276489,526.141602 
	C1338.722168,529.513428 1371.000854,560.319702 1376.212769,599.559692 
	C1376.322266,600.383789 1376.522339,601.195862 1376.737183,602.469849 
z"/>
<path fill="#EFEDE5" opacity="1.000000" stroke="none" 
	d="
M1059.618042,67.048828 
	C1059.948242,73.419365 1059.948242,73.419365 1051.355225,74.599709 
	C1046.678223,74.178055 1042.287476,73.492584 1037.896606,72.807114 
	C1037.840088,72.481300 1037.783447,72.155495 1037.726807,71.829681 
	C1044.886719,70.229904 1052.046753,68.630119 1059.618042,67.048828 
z"/>
</svg>